<svg xmlns="http://www.w3.org/2000/svg" xmlns:xlink="http://www.w3.org/1999/xlink" viewBox="0 0 935.38 495.32"><defs><style>.a,.aa,.ab,.ac,.ad,.c,.e,.i,.w,.y,.z{fill:none;}.b{clip-path:url(#a);}.c{stroke:silver;}.c,.e,.i{stroke-linejoin:bevel;stroke-width:0.75px;}.d{fill:#666;}.e{stroke:#cbcbcb;}.e,.i{stroke-linecap:square;}.f{clip-path:url(#b);}.g{fill:#fff;}.h{clip-path:url(#e);}.i{stroke:#f2f2f2;stroke-dasharray:0.75 1.5;}.j,.k,.l{fill:#bab0ac;}.j{opacity:0.4;}.k,.l{opacity:0.52;}.l,.n,.p,.r,.t,.v{fill-rule:evenodd;}.m,.n{fill:#f28e2b;}.o,.p{fill:#59a14f;}.q,.r{fill:#76b7b2;}.s,.t{fill:#4e79a7;}.u,.v{fill:#e15759;}.ad,.w{stroke:#231f20;}.aa,.ab,.ac,.ad,.ae,.w,.y,.z{stroke-miterlimit:10;}.w{stroke-width:0.45px;}.x{fill:#231f20;}.y{stroke:#e15759;}.aa,.ab,.ac,.y,.z{stroke-width:0.5px;}.z{stroke:#4e79a7;}.aa{stroke:#76b7b2;}.ab{stroke:#59a14f;}.ac{stroke:#f28e2b;}.ae{fill:#999;stroke:#999;stroke-width:0.25px;}</style><clipPath id="a"><rect class="a" x="10.97" y="12.64" width="72.3" height="269.41"/></clipPath><clipPath id="b"><rect class="a" x="82.28" y="13.63" width="836.95" height="268.42"/></clipPath><clipPath id="e"><rect class="a" x="82.28" y="13.63" width="835.96" height="267.43"/></clipPath></defs><g class="b"><line class="c" x1="77.33" y1="242.43" x2="82.28" y2="242.43"/><line class="c" x1="77.33" y1="202.81" x2="82.28" y2="202.81"/><line class="c" x1="77.33" y1="169.13" x2="82.28" y2="169.13"/><line class="c" x1="77.33" y1="139.42" x2="82.28" y2="139.42"/><line class="c" x1="77.33" y1="90.89" x2="82.28" y2="90.89"/><line class="c" x1="77.33" y1="50.28" x2="82.28" y2="50.28"/><line class="c" x1="80.3" y1="113.67" x2="82.28" y2="113.67"/><path class="d" d="M54.28,247.42v-1a4.53,4.53,0,0,0,1.62.34,1.8,1.8,0,0,0,1.34-.5,1.9,1.9,0,0,0,.48-1.38c0-1.28-.89-1.93-2.66-1.93-.2,0-.42,0-.64,0v-4.18h4.35v1H55.43v2.27a4,4,0,0,1,2.58.76,2.55,2.55,0,0,1,.93,2.1,2.43,2.43,0,0,1-.85,2,3.54,3.54,0,0,1-2.34.71A7,7,0,0,1,54.28,247.42Z"/><path class="d" d="M64.07,247.6a2.5,2.5,0,0,1-2.16-1.25,6,6,0,0,1-.82-3.27,5.77,5.77,0,0,1,.83-3.26,2.54,2.54,0,0,1,4.36,0,5.73,5.73,0,0,1,.83,3.25,5.83,5.83,0,0,1-.83,3.29A2.53,2.53,0,0,1,64.07,247.6Zm0-.86c1.21,0,1.81-1.23,1.81-3.69s-.59-3.61-1.79-3.61-1.79,1.21-1.79,3.64S62.9,246.74,64.08,246.74Z"/><path class="d" d="M71.57,247.6a2.48,2.48,0,0,1-2.15-1.25,5.87,5.87,0,0,1-.82-3.27,5.77,5.77,0,0,1,.83-3.26,2.53,2.53,0,0,1,4.35,0,5.66,5.66,0,0,1,.83,3.25,5.75,5.75,0,0,1-.83,3.29A2.52,2.52,0,0,1,71.57,247.6Zm0-.86c1.21,0,1.82-1.23,1.82-3.69s-.6-3.61-1.79-3.61-1.79,1.21-1.79,3.64S70.41,246.74,71.58,246.74Z"/><path class="d" d="M54.88,202.32a2.48,2.48,0,0,1,2.06-1.06,2.43,2.43,0,0,1,1.84.75,2.62,2.62,0,0,1,.72,1.91,3.08,3.08,0,0,1-.81,2.2,2.64,2.64,0,0,1-2,.87,2.54,2.54,0,0,1-2.22-1.15,5.48,5.48,0,0,1-.8-3.17,5.73,5.73,0,0,1,.92-3.47A3.05,3.05,0,0,1,57.14,198a7.13,7.13,0,0,1,1.91.33v1a5.83,5.83,0,0,0-2-.47C55.61,198.82,54.88,200,54.88,202.32Zm3.47,1.85a2.42,2.42,0,0,0-.44-1.53,1.47,1.47,0,0,0-1.22-.56,1.76,1.76,0,0,0-1.24.49,1.56,1.56,0,0,0-.53,1.17,2.83,2.83,0,0,0,.5,1.74,1.58,1.58,0,0,0,1.31.65,1.46,1.46,0,0,0,1.18-.53A2.2,2.2,0,0,0,58.35,204.17Z"/><path class="d" d="M64.07,207a2.5,2.5,0,0,1-2.16-1.25,5.93,5.93,0,0,1-.82-3.27,5.77,5.77,0,0,1,.83-3.26,2.54,2.54,0,0,1,4.36,0,5.73,5.73,0,0,1,.83,3.25,5.83,5.83,0,0,1-.83,3.29A2.53,2.53,0,0,1,64.07,207Zm0-.86c1.21,0,1.81-1.23,1.81-3.69s-.59-3.61-1.79-3.61-1.79,1.21-1.79,3.64S62.9,206.13,64.08,206.13Z"/><path class="d" d="M71.57,207a2.48,2.48,0,0,1-2.15-1.25,5.85,5.85,0,0,1-.82-3.27,5.77,5.77,0,0,1,.83-3.26,2.53,2.53,0,0,1,4.35,0,5.66,5.66,0,0,1,.83,3.25,5.75,5.75,0,0,1-.83,3.29A2.52,2.52,0,0,1,71.57,207Zm0-.86c1.21,0,1.82-1.23,1.82-3.69s-.6-3.61-1.79-3.61-1.79,1.21-1.79,3.64S70.41,206.13,71.58,206.13Z"/><path class="d" d="M54.62,173.1a7.53,7.53,0,0,1,.48-1.74,16.58,16.58,0,0,1,1.1-2l2.34-3.77H54.12v-1.07h5.52v1.07c-2.21,3.25-3.44,5.75-3.7,7.52Z"/><path class="d" d="M64.07,173.31a2.48,2.48,0,0,1-2.16-1.25,5.9,5.9,0,0,1-.82-3.26,5.78,5.78,0,0,1,.83-3.27,2.54,2.54,0,0,1,4.36,0,5.76,5.76,0,0,1,.83,3.25,5.84,5.84,0,0,1-.83,3.3A2.55,2.55,0,0,1,64.07,173.31Zm0-.86c1.21,0,1.81-1.23,1.81-3.69s-.59-3.61-1.79-3.61-1.79,1.22-1.79,3.65S62.9,172.45,64.08,172.45Z"/><path class="d" d="M71.57,173.31a2.46,2.46,0,0,1-2.15-1.25,6.87,6.87,0,0,1,0-6.53,2.53,2.53,0,0,1,4.35,0,5.68,5.68,0,0,1,.83,3.25,5.76,5.76,0,0,1-.83,3.3A2.53,2.53,0,0,1,71.57,173.31Zm0-.86c1.21,0,1.82-1.23,1.82-3.69s-.6-3.61-1.79-3.61-1.79,1.22-1.79,3.65S70.41,172.45,71.58,172.45Z"/><path class="d" d="M55.57,139.7a2.43,2.43,0,0,1-1.26-1.94,2,2,0,0,1,.71-1.59,2.81,2.81,0,0,1,1.86-.61,2.76,2.76,0,0,1,1.73.52,1.63,1.63,0,0,1,.65,1.34,2.84,2.84,0,0,1-1.6,2.28c1.3.63,2,1.45,2,2.45a2.2,2.2,0,0,1-.82,1.76,3.59,3.59,0,0,1-4.15,0,2.08,2.08,0,0,1-.78-1.69A3,3,0,0,1,55.57,139.7Zm.62.46a4.3,4.3,0,0,0-.94.93,1.91,1.91,0,0,0-.25,1,1.56,1.56,0,0,0,.48,1.19,1.71,1.71,0,0,0,1.25.46,1.89,1.89,0,0,0,1.23-.39,1.27,1.27,0,0,0,.47-1,1.28,1.28,0,0,0-.29-.84,4.85,4.85,0,0,0-1.14-.85Zm.83-.82a2.21,2.21,0,0,0,1.21-1.76,1,1,0,0,0-.41-.84,1.62,1.62,0,0,0-1-.31,1.6,1.6,0,0,0-1,.31,1,1,0,0,0-.39.8,1.24,1.24,0,0,0,.35.86A6,6,0,0,0,57,139.34Z"/><path class="d" d="M64.07,144.59a2.5,2.5,0,0,1-2.16-1.25,5.93,5.93,0,0,1-.82-3.27,5.77,5.77,0,0,1,.83-3.26,2.54,2.54,0,0,1,4.36,0,5.73,5.73,0,0,1,.83,3.25,5.89,5.89,0,0,1-.83,3.3A2.55,2.55,0,0,1,64.07,144.59Zm0-.86c1.21,0,1.81-1.23,1.81-3.69s-.59-3.61-1.79-3.61-1.79,1.21-1.79,3.64S62.9,143.73,64.08,143.73Z"/><path class="d" d="M71.57,144.59a2.48,2.48,0,0,1-2.15-1.25,5.85,5.85,0,0,1-.82-3.27,5.77,5.77,0,0,1,.83-3.26,2.53,2.53,0,0,1,4.35,0,5.66,5.66,0,0,1,.83,3.25,5.81,5.81,0,0,1-.83,3.3A2.53,2.53,0,0,1,71.57,144.59Zm0-.86c1.21,0,1.82-1.23,1.82-3.69s-.6-3.61-1.79-3.61-1.79,1.21-1.79,3.64S70.41,143.73,71.58,143.73Z"/><path class="d" d="M43.35,94.85V94h1.72V87.21l-1.72.43v-.88l2.87-.71V94h1.72v.86Z"/><path class="d" d="M50.23,96.71v-.43c.38-.1.56-.54.56-1.31v-.12h-.56V93.42h1.44v1.24C51.67,95.93,51.19,96.62,50.23,96.71Z"/><path class="d" d="M56.56,95.06a2.46,2.46,0,0,1-2.15-1.25,5.81,5.81,0,0,1-.82-3.26,5.72,5.72,0,0,1,.83-3.27,2.54,2.54,0,0,1,4.35,0,5.78,5.78,0,0,1,.83,3.25,5.84,5.84,0,0,1-.83,3.3A2.55,2.55,0,0,1,56.56,95.06Zm0-.85c1.21,0,1.82-1.23,1.82-3.7s-.6-3.61-1.8-3.61-1.78,1.22-1.78,3.65S55.39,94.21,56.57,94.21Z"/><path class="d" d="M64.07,95.06a2.48,2.48,0,0,1-2.16-1.25,5.9,5.9,0,0,1-.82-3.26,5.8,5.8,0,0,1,.83-3.27,2.55,2.55,0,0,1,4.36,0,5.78,5.78,0,0,1,.83,3.25,5.84,5.84,0,0,1-.83,3.3A2.55,2.55,0,0,1,64.07,95.06Zm0-.85c1.21,0,1.81-1.23,1.81-3.7S65.3,86.9,64.1,86.9s-1.79,1.22-1.79,3.65S62.9,94.21,64.08,94.21Z"/><path class="d" d="M71.57,95.06a2.46,2.46,0,0,1-2.15-1.25,6.87,6.87,0,0,1,0-6.53,2.54,2.54,0,0,1,4.35,0,5.7,5.7,0,0,1,.83,3.25,5.76,5.76,0,0,1-.83,3.3A2.53,2.53,0,0,1,71.57,95.06Zm0-.85c1.21,0,1.82-1.23,1.82-3.7s-.6-3.61-1.79-3.61-1.79,1.22-1.79,3.65S70.41,94.21,71.58,94.21Z"/><path class="d" d="M43.35,55.23v-.86h1.72V47.59L43.35,48v-.88l2.87-.71v7.94h1.72v.86Z"/><path class="d" d="M50.23,57.09v-.42c.38-.11.56-.55.56-1.32v-.12h-.56V53.8h1.44V55C51.67,56.31,51.19,57,50.23,57.09Z"/><path class="d" d="M53.82,55.23v-1a7.75,7.75,0,0,1,2-2.54l.66-.59a3.18,3.18,0,0,0,1.26-2.27,1.47,1.47,0,0,0-.43-1.13,1.64,1.64,0,0,0-1.19-.41A4.46,4.46,0,0,0,54,48V47a5.31,5.31,0,0,1,2.27-.54,2.78,2.78,0,0,1,1.94.65A2.18,2.18,0,0,1,59,48.8a2.59,2.59,0,0,1-.36,1.37,7,7,0,0,1-1.38,1.45l-.44.38a4.24,4.24,0,0,0-1.59,2.23h3.73v1Z"/><path class="d" d="M64.07,55.45a2.5,2.5,0,0,1-2.16-1.25,6,6,0,0,1-.82-3.27,5.83,5.83,0,0,1,.83-3.27,2.55,2.55,0,0,1,4.36,0,5.78,5.78,0,0,1,.83,3.25,5.84,5.84,0,0,1-.83,3.3A2.53,2.53,0,0,1,64.07,55.45Zm0-.86c1.21,0,1.81-1.23,1.81-3.69s-.59-3.61-1.79-3.61-1.79,1.21-1.79,3.64S62.9,54.59,64.08,54.59Z"/><path class="d" d="M71.57,55.45a2.48,2.48,0,0,1-2.15-1.25,5.87,5.87,0,0,1-.82-3.27,5.83,5.83,0,0,1,.83-3.27,2.54,2.54,0,0,1,4.35,0,5.7,5.7,0,0,1,.83,3.25,5.76,5.76,0,0,1-.83,3.3A2.52,2.52,0,0,1,71.57,55.45Zm0-.86c1.21,0,1.82-1.23,1.82-3.69s-.6-3.61-1.79-3.61-1.79,1.21-1.79,3.64S70.41,54.59,71.58,54.59Z"/><line class="e" x1="82.28" y1="281.06" x2="11.96" y2="281.06"/><line class="e" x1="82.28" y1="281.06" x2="11.96" y2="281.06"/></g><g class="f"><rect class="g" x="82.28" y="13.63" width="836.95" height="268.42"/><rect class="g" x="82.28" y="52.26" width="836.95" height="229.79"/></g><g class="f"><rect class="g" x="82.28" y="13.63" width="836.95" height="268.42"/></g><g class="f"><rect class="g" x="82.28" y="13.63" width="836.95" height="268.42"/></g><g class="h"><line class="i" x1="82.28" y1="242.43" x2="918.24" y2="242.43"/><line class="i" x1="82.28" y1="202.81" x2="918.24" y2="202.81"/><line class="i" x1="82.28" y1="169.13" x2="918.24" y2="169.13"/><line class="i" x1="82.28" y1="139.42" x2="918.24" y2="139.42"/><line class="i" x1="82.28" y1="90.89" x2="918.24" y2="90.89"/><line class="i" x1="82.28" y1="50.28" x2="918.24" y2="50.28"/></g><g class="h"><line class="i" x1="122.89" y1="280.07" x2="122.89" y2="13.63"/><line class="i" x1="877.63" y1="280.07" x2="877.63" y2="13.63"/></g><g class="h"><path class="j" d="M123.71,146l188.88,57.33-.71,2.34-1.12-2.17,188.88-97.53a2.45,2.45,0,1,1-1.32,2.17,2.65,2.65,0,0,1,.16-.89l2.86-1.48,188.88,46.64-.58,2.37-.08-2.44,188.88-6.45a2.45,2.45,0,0,1,.16,4.89l-188.88,6.44h-.08a2.33,2.33,0,0,1-.59-.08h0L500.17,110.48l.59-2.38,1.12,2.18L313,207.8a2.5,2.5,0,0,1-1.12.27,2.71,2.71,0,0,1-.71-.1h0L122.29,150.63a2.44,2.44,0,1,1,1.42-4.67Z"/><circle class="k" cx="123" cy="148.29" r="3.93" transform="translate(-51.9 229.11) rotate(-75.13)"/><circle class="k" cx="311.88" cy="205.63" r="3.93" transform="translate(2.55 415.08) rotate(-67.5)"/><circle class="k" cx="500.76" cy="108.1" r="3.93" transform="translate(70.23 385.75) rotate(-45)"/><path class="l" d="M693.57,154.74a3.93,3.93,0,1,1-3.93-3.93A3.93,3.93,0,0,1,693.57,154.74Z"/><circle class="k" cx="878.52" cy="148.29" r="3.93" transform="translate(10.12 347.48) rotate(-22.5)"/></g><g class="h"><circle class="m" cx="123" cy="27.42" r="2.07"/><circle class="m" cx="311.88" cy="265.97" r="2.07"/><path class="n" d="M502.83,27.42a2.07,2.07,0,1,1-2.07-2.07A2.08,2.08,0,0,1,502.83,27.42Z"/><path class="n" d="M691.71,266a2.07,2.07,0,1,1-2.07-2.07A2.08,2.08,0,0,1,691.71,266Z"/><path class="n" d="M880.59,27.42a2.07,2.07,0,1,1-2.07-2.07A2.08,2.08,0,0,1,880.59,27.42Z"/><rect class="m" x="123" y="25.35" width="188.88" height="4.15"/><circle class="m" cx="311.88" cy="27.42" r="2.07"/><rect class="m" x="311.88" y="263.9" width="188.88" height="4.15"/><path class="n" d="M502.83,266a2.07,2.07,0,1,1-2.07-2.07A2.08,2.08,0,0,1,502.83,266Z"/><rect class="m" x="500.76" y="25.35" width="188.88" height="4.15"/><path class="n" d="M691.71,27.42a2.07,2.07,0,1,1-2.07-2.07A2.08,2.08,0,0,1,691.71,27.42Z"/><rect class="m" x="689.64" y="263.9" width="188.88" height="4.15"/><path class="n" d="M880.59,266a2.07,2.07,0,1,1-2.07-2.07A2.08,2.08,0,0,1,880.59,266Z"/><circle class="o" cx="123" cy="188.6" r="2.07"/><circle class="o" cx="311.88" cy="188.6" r="2.07"/><path class="p" d="M502.83,245.46a2.07,2.07,0,1,1-2.07-2.07A2.08,2.08,0,0,1,502.83,245.46Z"/><path class="p" d="M691.71,245.46a2.07,2.07,0,1,1-2.07-2.07A2.08,2.08,0,0,1,691.71,245.46Z"/><path class="p" d="M880.59,188.6a2.07,2.07,0,1,1-2.07-2.07A2.08,2.08,0,0,1,880.59,188.6Z"/><rect class="o" x="123" y="186.53" width="188.88" height="4.15"/><circle class="o" cx="311.88" cy="188.6" r="2.07"/><rect class="o" x="311.88" y="186.53" width="188.88" height="4.15"/><path class="p" d="M502.83,188.6a2.07,2.07,0,1,1-2.07-2.07A2.08,2.08,0,0,1,502.83,188.6Z"/><rect class="o" x="500.76" y="243.39" width="188.88" height="4.15"/><path class="p" d="M691.71,245.46a2.07,2.07,0,1,1-2.07-2.07A2.08,2.08,0,0,1,691.71,245.46Z"/><rect class="o" x="689.64" y="243.39" width="188.88" height="4.15"/><path class="p" d="M880.59,245.46a2.07,2.07,0,1,1-2.07-2.07A2.08,2.08,0,0,1,880.59,245.46Z"/><circle class="q" cx="123" cy="252.94" r="2.07"/><circle class="q" cx="311.88" cy="252.94" r="2.07"/><path class="r" d="M502.83,237.07a2.07,2.07,0,1,1-2.07-2.07A2.08,2.08,0,0,1,502.83,237.07Z"/><path class="r" d="M691.71,237.07a2.07,2.07,0,1,1-2.07-2.07A2.08,2.08,0,0,1,691.71,237.07Z"/><path class="r" d="M880.59,252.94a2.07,2.07,0,1,1-2.07-2.07A2.07,2.07,0,0,1,880.59,252.94Z"/><rect class="q" x="123" y="250.87" width="188.88" height="4.15"/><circle class="q" cx="311.88" cy="252.94" r="2.07"/><rect class="q" x="311.88" y="250.87" width="188.88" height="4.15"/><path class="r" d="M502.83,252.94a2.07,2.07,0,1,1-2.07-2.07A2.07,2.07,0,0,1,502.83,252.94Z"/><rect class="q" x="500.76" y="235" width="188.88" height="4.15"/><path class="r" d="M691.71,237.07a2.07,2.07,0,1,1-2.07-2.07A2.08,2.08,0,0,1,691.71,237.07Z"/><rect class="q" x="689.64" y="235" width="188.88" height="4.15"/><path class="r" d="M880.59,237.07a2.07,2.07,0,1,1-2.07-2.07A2.08,2.08,0,0,1,880.59,237.07Z"/><circle class="s" cx="123" cy="210.23" r="2.07"/><circle class="s" cx="311.88" cy="210.23" r="2.07"/><path class="t" d="M502.83,49.86a2.07,2.07,0,1,1-2.07-2.07A2.07,2.07,0,0,1,502.83,49.86Z"/><path class="t" d="M691.71,49.86a2.07,2.07,0,1,1-2.07-2.07A2.07,2.07,0,0,1,691.71,49.86Z"/><path class="t" d="M880.59,210.23a2.07,2.07,0,1,1-2.07-2.08A2.07,2.07,0,0,1,880.59,210.23Z"/><rect class="s" x="123" y="208.15" width="188.88" height="4.15"/><circle class="s" cx="311.88" cy="210.23" r="2.07"/><rect class="s" x="311.88" y="208.15" width="188.88" height="4.15"/><path class="t" d="M502.83,210.23a2.07,2.07,0,1,1-2.07-2.08A2.07,2.07,0,0,1,502.83,210.23Z"/><rect class="s" x="500.76" y="47.79" width="188.88" height="4.15"/><path class="t" d="M691.71,49.86a2.07,2.07,0,1,1-2.07-2.07A2.07,2.07,0,0,1,691.71,49.86Z"/><rect class="s" x="689.64" y="47.79" width="188.88" height="4.15"/><path class="t" d="M880.59,49.86a2.07,2.07,0,1,1-2.07-2.07A2.07,2.07,0,0,1,880.59,49.86Z"/><circle class="u" cx="123" cy="135.83" r="2.07"/><circle class="u" cx="311.88" cy="135.83" r="2.07"/><path class="v" d="M502.83,75.26a2.07,2.07,0,1,1-2.07-2.07A2.08,2.08,0,0,1,502.83,75.26Z"/><path class="v" d="M691.71,75.26a2.07,2.07,0,1,1-2.07-2.07A2.08,2.08,0,0,1,691.71,75.26Z"/><path class="v" d="M880.59,135.83a2.07,2.07,0,1,1-2.07-2.07A2.07,2.07,0,0,1,880.59,135.83Z"/><rect class="u" x="123" y="133.76" width="188.88" height="4.15"/><circle class="u" cx="311.88" cy="135.83" r="2.07"/><rect class="u" x="311.88" y="133.76" width="188.88" height="4.15"/><path class="v" d="M502.83,135.83a2.07,2.07,0,1,1-2.07-2.07A2.07,2.07,0,0,1,502.83,135.83Z"/><rect class="u" x="500.76" y="73.19" width="188.88" height="4.15"/><path class="v" d="M691.71,75.26a2.07,2.07,0,1,1-2.07-2.07A2.08,2.08,0,0,1,691.71,75.26Z"/><rect class="u" x="689.64" y="73.19" width="188.88" height="4.15"/><path class="v" d="M880.59,75.26a2.07,2.07,0,1,1-2.07-2.07A2.08,2.08,0,0,1,880.59,75.26Z"/></g><g class="f"><line class="e" x1="82.28" y1="13.63" x2="82.28" y2="281.06"/><line class="e" x1="918.24" y1="13.63" x2="918.24" y2="281.06"/><line class="e" x1="82.28" y1="13.63" x2="918.24" y2="13.63"/><line class="e" x1="82.28" y1="281.06" x2="918.24" y2="281.06"/></g><line class="w" x1="63.3" y1="320.7" x2="63.3" y2="441.93"/><path class="x" d="M86.49,352.73a12.47,12.47,0,0,1-1.9.19,15.91,15.91,0,0,1-2,0c-.64-.06-1.24-.13-1.78-.23a4.78,4.78,0,0,1-1.33-.4,17.75,17.75,0,0,1-4-2.51A11.15,11.15,0,0,1,73.19,347,10.41,10.41,0,0,1,72,344a19.84,19.84,0,0,1-.44-3,10.19,10.19,0,0,1,.31-3.33,16.6,16.6,0,0,1,1.18-3.18,17.53,17.53,0,0,1,1.73-2.8,20.25,20.25,0,0,1,2-2.24c.77-.72,1.58-1.44,2.42-2.15S81,325.82,82,325.08a6.71,6.71,0,0,0-.08-.74c0-.21-.07-.43-.11-.65s-.09-.48-.14-.76a7.76,7.76,0,0,1-.11-1c0-.17,0-.48-.07-.94s-.07-1-.08-1.67,0-1.39,0-2.22a18.86,18.86,0,0,1,.32-2.59,11.3,11.3,0,0,1,.69-2,18.56,18.56,0,0,1,1.24-2.38,12,12,0,0,1,1.52-2,2.21,2.21,0,0,1,1.51-.83,1.11,1.11,0,0,1,.76.43,5.6,5.6,0,0,1,.82,1.15,14.66,14.66,0,0,1,.78,1.63,19.62,19.62,0,0,1,1.14,3.76,14.89,14.89,0,0,1,.21,1.63,21.52,21.52,0,0,1-.13,2.92,13.28,13.28,0,0,1-.48,2.27,14.42,14.42,0,0,1-.75,1.86c-.29.56-.6,1.13-.91,1.71a15.39,15.39,0,0,1-1,1.52c-.36.43-.71.88-1.08,1.32a6.88,6.88,0,0,1-1.19,1.17c-.42.31-.83.65-1.23,1l.51,2.94c.06.38.12.76.19,1.12s.12.7.16,1a6.91,6.91,0,0,0,.13.76,3.36,3.36,0,0,1,.06.37,7,7,0,0,1,1.58,0,12.58,12.58,0,0,1,1.57.24,6.61,6.61,0,0,1,1.34.41,6.88,6.88,0,0,1,1,.48,7.29,7.29,0,0,1,2.44,2.93,10.32,10.32,0,0,1,.85,3.37,9.19,9.19,0,0,1-.22,2.7,9,9,0,0,1-1.08,2.59,9.34,9.34,0,0,1-1.95,2.25,10.29,10.29,0,0,1-2.83,1.7l.36,2.43c.1.64.2,1.26.28,1.87s.15,1,.2,1.26a16.66,16.66,0,0,1,.22,3.15,4.63,4.63,0,0,1-.48,2,10.73,10.73,0,0,1-.82,1.25,5.64,5.64,0,0,1-1.1,1.08,5.87,5.87,0,0,1-1.49.8,6.54,6.54,0,0,1-1.93.39,8,8,0,0,1-2-.15,7.86,7.86,0,0,1-2.21-.73,5.86,5.86,0,0,1-1.82-1.42,3.72,3.72,0,0,1-.86-2.21,5.08,5.08,0,0,1,.09-1.55,4.17,4.17,0,0,1,.56-1.41A3.29,3.29,0,0,1,79,357.75a3,3,0,0,1,1.17.18,4,4,0,0,1,1.1.59,3.07,3.07,0,0,1,.83,1,3.15,3.15,0,0,1,.39,1.25,3.32,3.32,0,0,1-.74,2.28,5,5,0,0,1-2.81,1.65,2.91,2.91,0,0,0,1.21.85,5.61,5.61,0,0,0,2.24.4,4.94,4.94,0,0,0,2.7-.83,5.92,5.92,0,0,0,2-2.08,4.56,4.56,0,0,0,.45-2.16,23.91,23.91,0,0,0-.16-2.67c0-.15-.11-.52-.19-1.1s-.19-1.2-.29-1.84S86.64,353.65,86.49,352.73Zm-4.17-11.88A4.28,4.28,0,0,0,81,342a3.69,3.69,0,0,0-.67,1.4,4.54,4.54,0,0,0-.15,1.31,4.06,4.06,0,0,0,.26,1.18A5.28,5.28,0,0,0,81,347a6.36,6.36,0,0,0,.8,1,3.43,3.43,0,0,0,.88.66l-.11.11-.11.11a.5.5,0,0,0-.1.13,8,8,0,0,1-1.74-1.13,9.17,9.17,0,0,1-1-.95c-.23-.32-.44-.61-.61-.86a4.19,4.19,0,0,1-.41-.82,5.8,5.8,0,0,1-.27-.94,6.65,6.65,0,0,1-.15-1.21,4.71,4.71,0,0,1,.1-1.43,7,7,0,0,1,1.49-3,8.55,8.55,0,0,1,1.39-1.36,5.26,5.26,0,0,1,.75-.51l.62-.34a2.63,2.63,0,0,1,.59-.22l.66-.18-1-5.79a13.38,13.38,0,0,0-1.25.9c-.57.45-1.2,1-1.88,1.6s-1.36,1.28-2,2A14.16,14.16,0,0,0,76,336.78a21.5,21.5,0,0,0-1.79,3.36,6.81,6.81,0,0,0-.48,3.32A7.76,7.76,0,0,0,75,347.22a10.09,10.09,0,0,0,2.83,2.92,10.79,10.79,0,0,0,3.93,1.65,10.26,10.26,0,0,0,4.57-.11q-.51-3.17-.92-5.66c-.13-.7-.25-1.4-.35-2.08s-.21-1.29-.31-1.82-.18-1.13-.27-1.79A5.12,5.12,0,0,0,82.32,340.85Zm4.85-28.63A2.74,2.74,0,0,0,85,313.39a9.37,9.37,0,0,0-1.54,3,18.7,18.7,0,0,0-.69,8A21.42,21.42,0,0,0,85,322.47a20.62,20.62,0,0,0,2.09-2.41,15,15,0,0,0,1.54-2.59,5.05,5.05,0,0,0,.49-2.5,8.36,8.36,0,0,0-.12-.86,3.44,3.44,0,0,0-.32-.9,2.31,2.31,0,0,0-.58-.7A1.36,1.36,0,0,0,87.17,312.22Zm-.07,39.2a5.44,5.44,0,0,0,2.14-1.25,5,5,0,0,0,1.14-1.66,5.76,5.76,0,0,0,.42-1.79c0-.59,0-1.13,0-1.6a11.52,11.52,0,0,0-.27-1.44,4.83,4.83,0,0,0-.78-1.66,4.43,4.43,0,0,0-1.63-1.32,5.62,5.62,0,0,0-2.82-.44Z"/><path class="x" d="M87.65,426.33c-.2.36-.38.69-.56,1s-.37.58-.56.86-.4.55-.61.82-.46.55-.74.87-.53.61-.78.87-.49.5-.74.73a8.72,8.72,0,0,1-.78.69c-.28.22-.58.46-.93.72s-.82.6-1.19.83-.75.45-1.12.64-.77.37-1.17.53l-1.34.53a16.31,16.31,0,0,1-1.62.52c-.59.16-1.14.3-1.68.4s-1.23.25-1.85.35l-.23-.47c1-.35,2-.74,3-1.19.83-.38,1.71-.85,2.64-1.39a11.14,11.14,0,0,0,2.41-1.87,19.24,19.24,0,0,0,3.93-6.06A18.85,18.85,0,0,0,85,418.17a14.44,14.44,0,0,0-.2-2.2,9.08,9.08,0,0,0-.74-2.37,5.54,5.54,0,0,0-1.47-1.92,3.67,3.67,0,0,0-2.45-.8,5.51,5.51,0,0,0-1.83.35,6.74,6.74,0,0,0-1.78.95,5.12,5.12,0,0,0-1.31,1.4,2.74,2.74,0,0,0-.42,1.75c0,.08.09.11.21.08l.51-.15c.23-.06.5-.13.84-.19a5.21,5.21,0,0,1,1.16-.06,2.05,2.05,0,0,1,1.22.43,3,3,0,0,1,.83,1,3.84,3.84,0,0,1,.41,1.32,3.59,3.59,0,0,1-.06,1.39,3.23,3.23,0,0,1-.94,1.68,2.73,2.73,0,0,1-1.91.63,4.18,4.18,0,0,1-1.48-.28,4,4,0,0,1-1.27-.76,3.85,3.85,0,0,1-1.21-2.87,7.64,7.64,0,0,1,.3-2.43,7.87,7.87,0,0,1,.83-1.82,6.18,6.18,0,0,1,1.06-1.26,6.85,6.85,0,0,1,1-.78,7.75,7.75,0,0,1,2.4-1,12.11,12.11,0,0,1,2.3-.3,8,8,0,0,1,2.44.39,8.55,8.55,0,0,1,2.32,1.16,9.19,9.19,0,0,1,2,1.79,7.16,7.16,0,0,1,1.31,2.31,8.65,8.65,0,0,1,.56,3.06,15.53,15.53,0,0,1-.4,3.5c-.08.42-.18.81-.28,1.15s-.23.67-.36,1a10.11,10.11,0,0,1-.43,1ZM90.88,414a1.54,1.54,0,0,1,.47-1.24,1.74,1.74,0,0,1,1.25-.49,1.69,1.69,0,0,1,1.26.45,1.54,1.54,0,0,1,.53,1.21,1.76,1.76,0,1,1-3.51.07Zm0,8.05a1.59,1.59,0,0,1,.51-1.21,1.85,1.85,0,0,1,1.24-.51,1.87,1.87,0,0,1,1.27.46,1.53,1.53,0,0,1,.52,1.2,1.61,1.61,0,0,1-.48,1.26,1.81,1.81,0,0,1-2.51.05A1.78,1.78,0,0,1,90.88,422.07Z"/><line class="w" x1="62.94" y1="320.7" x2="892.92" y2="320.7"/><line class="w" x1="62.94" y1="328.69" x2="892.92" y2="328.69"/><line class="w" x1="62.94" y1="336.68" x2="892.92" y2="336.68"/><line class="w" x1="62.94" y1="344.68" x2="892.92" y2="344.68"/><line class="w" x1="62.94" y1="352.67" x2="892.92" y2="352.67"/><line class="w" x1="62.94" y1="409.96" x2="892.92" y2="409.96"/><line class="w" x1="62.94" y1="417.95" x2="892.92" y2="417.95"/><line class="w" x1="62.94" y1="425.94" x2="892.92" y2="425.94"/><line class="w" x1="62.94" y1="433.94" x2="892.92" y2="433.94"/><line class="w" x1="62.94" y1="441.93" x2="892.92" y2="441.93"/><polyline class="w" points="66.93 320.69 58.94 320.69 58.94 441.93 66.93 441.93"/><line class="y" x1="125.68" y1="339.35" x2="125.68" y2="312.7"/><path class="u" d="M125.79,337.83a2.08,2.08,0,0,1,.24.79,4.12,4.12,0,0,1,0,.86,6.67,6.67,0,0,1-.14.82,4.17,4.17,0,0,1-.2.6,6,6,0,0,1-1.34,2.15,6.09,6.09,0,0,1-1.63,1.27,6.7,6.7,0,0,1-3.74.61l-.75-.09a4.37,4.37,0,0,1-.86-.23,4.08,4.08,0,0,1-.84-.41,2,2,0,0,1-.62-.64,2,2,0,0,1-.3-.85,2.88,2.88,0,0,1,0-.83,5.12,5.12,0,0,1,.14-.74c.06-.22.13-.42.19-.59a5.3,5.3,0,0,1,1.28-2,9.29,9.29,0,0,1,1.57-1.25,6.84,6.84,0,0,1,1.8-.67,7.09,7.09,0,0,1,2.42-.1l.64.08a4,4,0,0,1,1.55.58A1.85,1.85,0,0,1,125.79,337.83Zm-.74.55a1.16,1.16,0,0,0-.62-.51,1.9,1.9,0,0,0-.8-.1,3.56,3.56,0,0,0-.88.19c-.3.11-.57.23-.83.35a10.66,10.66,0,0,0-1,.52l-.92.51c-.61.34-1.24.72-1.88,1.15a8,8,0,0,0-.72.51,2.89,2.89,0,0,0-.62.64,1.7,1.7,0,0,0-.34.75,1.08,1.08,0,0,0,.14.78,1.14,1.14,0,0,0,.61.52,2,2,0,0,0,.82.08,5.09,5.09,0,0,0,.88-.21c.29-.11.57-.23.83-.35s.7-.35,1-.52l1-.51.91-.51c.29-.17.6-.37.94-.61l.69-.51a3.13,3.13,0,0,0,.62-.64,1.82,1.82,0,0,0,.34-.75A1.09,1.09,0,0,0,125.05,338.38Z"/><line class="y" x1="514.03" y1="339.35" x2="514.03" y2="312.7"/><path class="u" d="M514.14,337.83a2.08,2.08,0,0,1,.24.79,4.12,4.12,0,0,1,0,.86,5.18,5.18,0,0,1-.15.82,3.29,3.29,0,0,1-.19.6,6.58,6.58,0,0,1-3,3.42,6.71,6.71,0,0,1-3.74.61l-.75-.09a4.66,4.66,0,0,1-.87-.23,4,4,0,0,1-.83-.41,1.89,1.89,0,0,1-.62-.64,2.19,2.19,0,0,1-.31-.85,3.84,3.84,0,0,1,0-.83,5.09,5.09,0,0,1,.15-.74c.06-.22.13-.42.19-.59a5.18,5.18,0,0,1,1.28-2,8.56,8.56,0,0,1,1.57-1.25,6.84,6.84,0,0,1,1.8-.67,7.09,7.09,0,0,1,2.42-.1l.64.08a4,4,0,0,1,1.55.58A1.85,1.85,0,0,1,514.14,337.83Zm-.74.55a1.2,1.2,0,0,0-.62-.51,1.92,1.92,0,0,0-.8-.1,3.56,3.56,0,0,0-.88.19c-.3.11-.58.23-.83.35s-.69.35-1,.52-.59.34-.91.51c-.62.34-1.24.72-1.88,1.15a8,8,0,0,0-.72.51,2.94,2.94,0,0,0-.63.64,1.8,1.8,0,0,0-.33.75,1,1,0,0,0,.14.78,1.1,1.1,0,0,0,.61.52,2,2,0,0,0,.81.08,4.88,4.88,0,0,0,.88-.21c.3-.11.58-.23.83-.35s.7-.35,1-.52l.95-.51.91-.51c.28-.17.6-.37.94-.61l.69-.51a3.13,3.13,0,0,0,.62-.64,2,2,0,0,0,.34-.75A1.09,1.09,0,0,0,513.4,338.38Z"/><line class="z" x1="115.93" y1="354" x2="115.93" y2="375.32"/><path class="s" d="M125.79,349.82a2.08,2.08,0,0,1,.24.79,4.12,4.12,0,0,1,0,.86,6.67,6.67,0,0,1-.14.82,4.17,4.17,0,0,1-.2.6,6,6,0,0,1-1.34,2.15,6.09,6.09,0,0,1-1.63,1.27,6.7,6.7,0,0,1-3.74.61l-.75-.09a4.37,4.37,0,0,1-.86-.23,4.08,4.08,0,0,1-.84-.41,2,2,0,0,1-.62-.64,2,2,0,0,1-.3-.85,2.88,2.88,0,0,1,0-.83,5.12,5.12,0,0,1,.14-.74c.06-.22.13-.42.19-.59a5.3,5.3,0,0,1,1.28-2,9.29,9.29,0,0,1,1.57-1.25,6.84,6.84,0,0,1,1.8-.67,7.09,7.09,0,0,1,2.42-.1l.64.08a3.63,3.63,0,0,1,1.55.58A1.85,1.85,0,0,1,125.79,349.82Zm-.74.55a1.16,1.16,0,0,0-.62-.51,1.9,1.9,0,0,0-.8-.1,3.16,3.16,0,0,0-.88.19,8,8,0,0,0-.83.35,10.73,10.73,0,0,0-1,.51c-.29.18-.6.35-.92.52-.61.34-1.24.72-1.88,1.15a8,8,0,0,0-.72.51,2.89,2.89,0,0,0-.62.64,1.7,1.7,0,0,0-.34.75,1.16,1.16,0,0,0,.75,1.29,1.73,1.73,0,0,0,.82.08,4.26,4.26,0,0,0,.88-.2c.29-.11.57-.23.83-.35s.7-.35,1-.52l1-.51.91-.51c.29-.17.6-.37.94-.61l.69-.51a3.13,3.13,0,0,0,.62-.64,1.82,1.82,0,0,0,.34-.75A1.09,1.09,0,0,0,125.05,350.37Z"/><line class="z" x1="504.27" y1="354" x2="504.27" y2="375.32"/><path class="s" d="M514.14,349.82a2.08,2.08,0,0,1,.24.79,4.12,4.12,0,0,1,0,.86,5.18,5.18,0,0,1-.15.82,3.29,3.29,0,0,1-.19.6,6.58,6.58,0,0,1-3,3.42,6.71,6.71,0,0,1-3.74.61l-.75-.09a4.66,4.66,0,0,1-.87-.23,4,4,0,0,1-.83-.41,1.89,1.89,0,0,1-.62-.64,2.19,2.19,0,0,1-.31-.85,3.84,3.84,0,0,1,0-.83,5.09,5.09,0,0,1,.15-.74c.06-.22.13-.42.19-.59a5.18,5.18,0,0,1,1.28-2,8.56,8.56,0,0,1,1.57-1.25,6.84,6.84,0,0,1,1.8-.67,7.09,7.09,0,0,1,2.42-.1l.64.08a3.63,3.63,0,0,1,1.55.58A1.85,1.85,0,0,1,514.14,349.82Zm-.74.55a1.2,1.2,0,0,0-.62-.51,1.92,1.92,0,0,0-.8-.1,3.16,3.16,0,0,0-.88.19,7.14,7.14,0,0,0-.83.35c-.36.17-.69.34-1,.51s-.59.35-.91.52c-.62.34-1.24.72-1.88,1.15a8,8,0,0,0-.72.51,2.94,2.94,0,0,0-.63.64,1.8,1.8,0,0,0-.33.75,1,1,0,0,0,.14.78,1,1,0,0,0,.61.51,1.69,1.69,0,0,0,.81.08,4.12,4.12,0,0,0,.88-.2c.3-.11.58-.23.83-.35s.7-.35,1-.52l.95-.51.91-.51c.28-.17.6-.37.94-.61l.69-.51a3.13,3.13,0,0,0,.62-.64,2,2,0,0,0,.34-.75A1.09,1.09,0,0,0,513.4,350.37Z"/><line class="aa" x1="125.68" y1="404.63" x2="125.68" y2="383.31"/><path class="q" d="M125.79,403.11a2.08,2.08,0,0,1,.24.79,4.12,4.12,0,0,1,0,.86,6.67,6.67,0,0,1-.14.82,4.17,4.17,0,0,1-.2.6,6,6,0,0,1-1.34,2.15,6.09,6.09,0,0,1-1.63,1.27,6.7,6.7,0,0,1-3.74.61l-.75-.09a4.37,4.37,0,0,1-.86-.23,4.08,4.08,0,0,1-.84-.41,2,2,0,0,1-.62-.64,2,2,0,0,1-.3-.85,2.88,2.88,0,0,1,0-.83,5.12,5.12,0,0,1,.14-.74c.06-.22.13-.42.19-.59a5.3,5.3,0,0,1,1.28-2,9.29,9.29,0,0,1,1.57-1.25,6.84,6.84,0,0,1,1.8-.67,7.09,7.09,0,0,1,2.42-.1l.64.08a3.63,3.63,0,0,1,1.55.58A1.85,1.85,0,0,1,125.79,403.11Zm-.74.55a1.16,1.16,0,0,0-.62-.51,1.9,1.9,0,0,0-.8-.1,3.16,3.16,0,0,0-.88.19,8,8,0,0,0-.83.35,10.73,10.73,0,0,0-1,.51c-.29.18-.6.35-.92.52-.61.34-1.24.72-1.88,1.15a8,8,0,0,0-.72.51,2.89,2.89,0,0,0-.62.64,1.7,1.7,0,0,0-.34.75,1.16,1.16,0,0,0,.75,1.29,1.87,1.87,0,0,0,.82.09,5.09,5.09,0,0,0,.88-.21c.29-.11.57-.23.83-.35s.7-.35,1-.52l1-.51.91-.51c.29-.17.6-.37.94-.61l.69-.51a3.13,3.13,0,0,0,.62-.64,1.82,1.82,0,0,0,.34-.75A1.09,1.09,0,0,0,125.05,403.66Z"/><line class="aa" x1="514.03" y1="404.63" x2="514.03" y2="383.31"/><path class="q" d="M514.14,403.11a2.08,2.08,0,0,1,.24.79,4.12,4.12,0,0,1,0,.86,5.18,5.18,0,0,1-.15.82,3.29,3.29,0,0,1-.19.6,6.58,6.58,0,0,1-3,3.42,6.71,6.71,0,0,1-3.74.61l-.75-.09a4.66,4.66,0,0,1-.87-.23,4,4,0,0,1-.83-.41,1.89,1.89,0,0,1-.62-.64A2.19,2.19,0,0,1,504,408a3.84,3.84,0,0,1,0-.83,5.09,5.09,0,0,1,.15-.74c.06-.22.13-.42.19-.59a5.18,5.18,0,0,1,1.28-2,8.56,8.56,0,0,1,1.57-1.25,6.84,6.84,0,0,1,1.8-.67,7.09,7.09,0,0,1,2.42-.1l.64.08a3.63,3.63,0,0,1,1.55.58A1.85,1.85,0,0,1,514.14,403.11Zm-.74.55a1.2,1.2,0,0,0-.62-.51,1.92,1.92,0,0,0-.8-.1,3.16,3.16,0,0,0-.88.19,7.14,7.14,0,0,0-.83.35c-.36.17-.69.34-1,.51s-.59.35-.91.52c-.62.34-1.24.72-1.88,1.15a8,8,0,0,0-.72.51,2.94,2.94,0,0,0-.63.64,1.8,1.8,0,0,0-.33.75,1,1,0,0,0,.14.78,1,1,0,0,0,.61.51,1.83,1.83,0,0,0,.81.09,4.88,4.88,0,0,0,.88-.21c.3-.11.58-.23.83-.35s.7-.35,1-.52l.95-.51L511,407c.28-.17.6-.37.94-.61l.69-.51a3.13,3.13,0,0,0,.62-.64,2,2,0,0,0,.34-.75A1.09,1.09,0,0,0,513.4,403.66Z"/><line class="ab" x1="115.93" y1="415.28" x2="115.93" y2="441.93"/><path class="o" d="M125.79,411.11a2,2,0,0,1,.24.78,4.12,4.12,0,0,1,0,.86,6.67,6.67,0,0,1-.14.82,4.36,4.36,0,0,1-.2.61,5.91,5.91,0,0,1-1.34,2.14,6.16,6.16,0,0,1-1.63,1.28,6.87,6.87,0,0,1-3.74.61l-.75-.1a3.78,3.78,0,0,1-.86-.23,4.08,4.08,0,0,1-.84-.41,1.9,1.9,0,0,1-.62-.64,2,2,0,0,1-.3-.85,2.88,2.88,0,0,1,0-.83,4.73,4.73,0,0,1,.14-.73c.06-.23.13-.43.19-.6a5.3,5.3,0,0,1,1.28-2,9.82,9.82,0,0,1,1.57-1.25,7.21,7.21,0,0,1,1.8-.67,6.86,6.86,0,0,1,2.42-.09l.64.08a3.4,3.4,0,0,1,.78.19,3.44,3.44,0,0,1,.77.38A1.8,1.8,0,0,1,125.79,411.11Zm-.74.54a1.16,1.16,0,0,0-.62-.51,1.9,1.9,0,0,0-.8-.1,3.56,3.56,0,0,0-.88.19,8,8,0,0,0-.83.36,10.73,10.73,0,0,0-1,.51l-.92.51c-.61.34-1.24.72-1.88,1.15a8,8,0,0,0-.72.51,3.12,3.12,0,0,0-.62.64,1.81,1.81,0,0,0-.34.75,1.12,1.12,0,0,0,.14.79,1.16,1.16,0,0,0,.61.51,2,2,0,0,0,.82.08,3.74,3.74,0,0,0,.88-.21,9,9,0,0,0,.83-.35c.36-.17.7-.34,1-.51l1-.51.91-.52c.29-.17.6-.37.94-.6s.44-.32.69-.52a3.13,3.13,0,0,0,.62-.64,1.82,1.82,0,0,0,.34-.75A1.11,1.11,0,0,0,125.05,411.65Z"/><path class="o" d="M106.61,409v-5.21h.93v4.89l3.13-1V403h.93v4.38l1.24-.41v3.32l-1.24.42v4.73l1.24-.38v3.29l-1.24.42v5.21h-.93V419l-3.13,1v4.73h-.93v-4.41l-1.38.45v-3.33l1.38-.45v-4.76l-1.38.45v-3.3Zm.93,3v4.76l3.13-1V411Z"/><line class="ab" x1="504.27" y1="415.28" x2="504.27" y2="441.93"/><path class="o" d="M514.14,411.11a2,2,0,0,1,.24.78,4.12,4.12,0,0,1,0,.86,5.18,5.18,0,0,1-.15.82,3.43,3.43,0,0,1-.19.61,6.05,6.05,0,0,1-1.34,2.14,6.16,6.16,0,0,1-1.63,1.28,6.89,6.89,0,0,1-3.74.61l-.75-.1a4.56,4.56,0,0,1-1.7-.64,1.81,1.81,0,0,1-.62-.64A2.19,2.19,0,0,1,504,416a3.84,3.84,0,0,1,0-.83,4.69,4.69,0,0,1,.15-.73c.06-.23.13-.43.19-.6a5.18,5.18,0,0,1,1.28-2,9,9,0,0,1,1.57-1.25,7.21,7.21,0,0,1,1.8-.67,6.86,6.86,0,0,1,2.42-.09l.64.08a3.4,3.4,0,0,1,.78.19,3.44,3.44,0,0,1,.77.38A1.8,1.8,0,0,1,514.14,411.11Zm-.74.54a1.2,1.2,0,0,0-.62-.51,1.92,1.92,0,0,0-.8-.1,3.56,3.56,0,0,0-.88.19,7.13,7.13,0,0,0-.83.36c-.36.17-.69.34-1,.51s-.59.34-.91.51c-.62.34-1.24.72-1.88,1.15a8,8,0,0,0-.72.51,3.17,3.17,0,0,0-.63.64,1.92,1.92,0,0,0-.33.75,1.07,1.07,0,0,0,.14.79,1.13,1.13,0,0,0,.61.51,2,2,0,0,0,.81.08,3.63,3.63,0,0,0,.88-.21,7.14,7.14,0,0,0,.83-.35c.37-.17.7-.34,1-.51l.95-.51.91-.52c.28-.17.6-.37.94-.6s.44-.32.69-.52a3.13,3.13,0,0,0,.62-.64,2,2,0,0,0,.34-.75A1.11,1.11,0,0,0,513.4,411.65Z"/><line class="ac" x1="115.93" y1="431.27" x2="115.93" y2="452.59"/><path class="m" d="M115.81,430a5,5,0,0,1,1-1.6,7.67,7.67,0,0,1,3.37-2.16,6.91,6.91,0,0,1,2-.3,4.33,4.33,0,0,1,1.79.34,3.11,3.11,0,0,1,1.21.89,2.63,2.63,0,0,1,.56,1.31,3.14,3.14,0,0,1-.21,1.62,5,5,0,0,1-1,1.61A7.41,7.41,0,0,1,123,433a7.78,7.78,0,0,1-1.87.87,7,7,0,0,1-2,.3,4.2,4.2,0,0,1-1.77-.34,3.06,3.06,0,0,1-1.22-.91,2.53,2.53,0,0,1-.56-1.32A3.49,3.49,0,0,1,115.81,430Z"/><line class="ac" x1="310.1" y1="431.27" x2="310.1" y2="452.59"/><path class="m" d="M310,430a5,5,0,0,1,1-1.6,7.62,7.62,0,0,1,3.38-2.16,6.89,6.89,0,0,1,2-.3,4.33,4.33,0,0,1,1.79.34,3.14,3.14,0,0,1,1.22.89,2.82,2.82,0,0,1,.56,1.31,3.37,3.37,0,0,1-.21,1.62,5.35,5.35,0,0,1-1,1.61,7.47,7.47,0,0,1-1.54,1.31,7.61,7.61,0,0,1-1.87.87,7,7,0,0,1-2,.3,4.2,4.2,0,0,1-1.77-.34,3.14,3.14,0,0,1-1.22-.91,2.61,2.61,0,0,1-.56-1.32A3.38,3.38,0,0,1,310,430Z"/><line class="ac" x1="504.27" y1="431.27" x2="504.27" y2="452.59"/><path class="m" d="M504.16,430a4.87,4.87,0,0,1,1-1.6,7.06,7.06,0,0,1,1.52-1.29,7.29,7.29,0,0,1,1.85-.87,6.89,6.89,0,0,1,2-.3,4.38,4.38,0,0,1,1.8.34,3.11,3.11,0,0,1,1.21.89,2.72,2.72,0,0,1,.56,1.31,3.37,3.37,0,0,1-.21,1.62,5,5,0,0,1-1,1.61,7.68,7.68,0,0,1-1.53,1.31,7.78,7.78,0,0,1-1.87.87,7,7,0,0,1-2,.3,4.22,4.22,0,0,1-1.78-.34,3.1,3.1,0,0,1-1.21-.91,2.53,2.53,0,0,1-.56-1.32A3.37,3.37,0,0,1,504.16,430Z"/><line class="ac" x1="693.7" y1="430.98" x2="693.7" y2="452.3"/><path class="m" d="M693.59,429.68a4.9,4.9,0,0,1,1-1.59,7.06,7.06,0,0,1,1.52-1.3,7.42,7.42,0,0,1,1.85-.86,6.65,6.65,0,0,1,2-.31,4.33,4.33,0,0,1,1.79.34,3,3,0,0,1,1.21.89,2.66,2.66,0,0,1,.56,1.32,3.2,3.2,0,0,1-.2,1.61,5.19,5.19,0,0,1-1,1.61,7.5,7.5,0,0,1-1.53,1.32,7.39,7.39,0,0,1-1.87.86,7,7,0,0,1-2,.3,4.37,4.37,0,0,1-1.77-.33,3.34,3.34,0,0,1-1.22-.91,2.68,2.68,0,0,1-.56-1.33A3.4,3.4,0,0,1,693.59,429.68Z"/><path class="o" d="M494.66,409v-5.21h.92v4.89l3.14-1V403h.93v4.38l1.24-.42v3.33l-1.24.41v4.73l1.24-.38v3.29l-1.24.42V424h-.93v-4.92l-3.14,1v4.73h-.92v-4.41l-1.38.45v-3.33l1.38-.45v-4.76l-1.38.45v-3.29Zm.92,3v4.77l3.14-1V411Z"/><path class="o" d="M864.41,409v-5.21h.93v4.89l3.13-1V403h.93v4.38l1.25-.42v3.33l-1.25.41v4.73l1.25-.38v3.3l-1.25.41V424h-.93v-4.92l-3.13,1v4.73h-.93v-4.41l-1.37.45v-3.33l1.37-.44v-4.77l-1.37.45v-3.29Zm.93,3v4.77l3.13-1V411Z"/><rect class="ad" x="11.2" y="8.16" width="914.13" height="475.21"/><line class="y" x1="883.16" y1="339.42" x2="883.16" y2="312.78"/><path class="u" d="M883.27,337.91a2,2,0,0,1,.24.78,4.12,4.12,0,0,1,0,.86,6.67,6.67,0,0,1-.14.82,4,4,0,0,1-.2.61,5.91,5.91,0,0,1-1.34,2.14,6,6,0,0,1-1.63,1.28,6.87,6.87,0,0,1-3.74.61l-.75-.1a4.35,4.35,0,0,1-.86-.22,4.71,4.71,0,0,1-.84-.42,1.9,1.9,0,0,1-.62-.64,2,2,0,0,1-.3-.85,3.84,3.84,0,0,1,0-.83,5,5,0,0,1,.14-.73c.07-.23.13-.42.19-.59a5.34,5.34,0,0,1,1.28-2,9.82,9.82,0,0,1,1.57-1.25,7.15,7.15,0,0,1,1.81-.67,6.79,6.79,0,0,1,2.41-.09l.64.08a3.28,3.28,0,0,1,.78.19,3.44,3.44,0,0,1,.77.38A1.8,1.8,0,0,1,883.27,337.91Zm-.73.54a1.33,1.33,0,0,0-.63-.51,2.07,2.07,0,0,0-.8-.1,3.7,3.7,0,0,0-.88.2,6.27,6.27,0,0,0-.83.35,10.73,10.73,0,0,0-1,.51l-.91.51c-.62.34-1.25.73-1.89,1.15a8,8,0,0,0-.72.51,3.39,3.39,0,0,0-.62.64,1.94,1.94,0,0,0-.34.75,1.17,1.17,0,0,0,.75,1.3,2,2,0,0,0,.82.08,3.74,3.74,0,0,0,.88-.21,9,9,0,0,0,.83-.35c.36-.17.7-.34,1-.51l.94-.51.91-.51.94-.61c.22-.15.44-.32.69-.51a3.73,3.73,0,0,0,.62-.64,1.94,1.94,0,0,0,.34-.75A1.17,1.17,0,0,0,882.54,338.45Z"/><line class="z" x1="873.41" y1="354.08" x2="873.41" y2="375.39"/><path class="s" d="M883.27,349.9a2,2,0,0,1,.24.78,4.12,4.12,0,0,1,0,.86,6.67,6.67,0,0,1-.14.82,4,4,0,0,1-.2.61,5.91,5.91,0,0,1-1.34,2.14,6,6,0,0,1-1.63,1.28,6.87,6.87,0,0,1-3.74.61l-.75-.1a4.35,4.35,0,0,1-.86-.22,4.71,4.71,0,0,1-.84-.42,1.9,1.9,0,0,1-.62-.64,2,2,0,0,1-.3-.85,3.84,3.84,0,0,1,0-.83,5,5,0,0,1,.14-.73c.07-.23.13-.42.19-.59a5.34,5.34,0,0,1,1.28-2,9.82,9.82,0,0,1,1.57-1.25,7.15,7.15,0,0,1,1.81-.67,6.79,6.79,0,0,1,2.41-.09l.64.08a3.28,3.28,0,0,1,.78.19,3.44,3.44,0,0,1,.77.38A1.8,1.8,0,0,1,883.27,349.9Zm-.73.54a1.27,1.27,0,0,0-.63-.51,1.9,1.9,0,0,0-.8-.1,3.7,3.7,0,0,0-.88.2,6.27,6.27,0,0,0-.83.35,10.73,10.73,0,0,0-1,.51l-.91.51c-.62.34-1.25.73-1.89,1.15a8,8,0,0,0-.72.51,3.12,3.12,0,0,0-.62.64,1.94,1.94,0,0,0-.34.75,1.17,1.17,0,0,0,.75,1.3,2,2,0,0,0,.82.08,3.74,3.74,0,0,0,.88-.21,9,9,0,0,0,.83-.35c.36-.17.7-.34,1-.51l.94-.51c.32-.17.62-.35.91-.52s.6-.37.94-.6.44-.32.69-.51a3.73,3.73,0,0,0,.62-.64,1.92,1.92,0,0,0,.34-.76A1.15,1.15,0,0,0,882.54,350.44Z"/><line class="aa" x1="883.16" y1="404.7" x2="883.16" y2="383.38"/><path class="q" d="M883.27,403.19a2,2,0,0,1,.24.78,4.12,4.12,0,0,1,0,.86,6.67,6.67,0,0,1-.14.82,4,4,0,0,1-.2.61,5.91,5.91,0,0,1-1.34,2.14,6,6,0,0,1-1.63,1.28,6.87,6.87,0,0,1-3.74.61l-.75-.1a4.35,4.35,0,0,1-.86-.22,4.71,4.71,0,0,1-.84-.42,1.9,1.9,0,0,1-.62-.64,2,2,0,0,1-.3-.85,3.84,3.84,0,0,1,0-.83,5,5,0,0,1,.14-.73c.07-.23.13-.42.19-.59a5.34,5.34,0,0,1,1.28-2,9.82,9.82,0,0,1,1.57-1.25,7.15,7.15,0,0,1,1.81-.67,6.79,6.79,0,0,1,2.41-.09l.64.08a3.28,3.28,0,0,1,.78.19,3.44,3.44,0,0,1,.77.38A1.8,1.8,0,0,1,883.27,403.19Zm-.73.54a1.27,1.27,0,0,0-.63-.51,1.9,1.9,0,0,0-.8-.1,3.7,3.7,0,0,0-.88.2,6.27,6.27,0,0,0-.83.35,10.73,10.73,0,0,0-1,.51l-.91.51c-.62.34-1.25.73-1.89,1.15a8,8,0,0,0-.72.51,3.39,3.39,0,0,0-.62.64,1.94,1.94,0,0,0-.34.75,1.17,1.17,0,0,0,.75,1.3,2,2,0,0,0,.82.08,3.74,3.74,0,0,0,.88-.21,9,9,0,0,0,.83-.35c.36-.17.7-.34,1-.51l.94-.51c.32-.17.62-.35.91-.52s.6-.37.94-.6.44-.32.69-.51a3.73,3.73,0,0,0,.62-.64,1.92,1.92,0,0,0,.34-.76A1.15,1.15,0,0,0,882.54,403.73Z"/><line class="ab" x1="873.41" y1="415.36" x2="873.41" y2="442"/><path class="o" d="M883.27,411.18a2.09,2.09,0,0,1,.24.78,4.22,4.22,0,0,1,0,.87,6.19,6.19,0,0,1-.14.81,4,4,0,0,1-.2.61,5.91,5.91,0,0,1-1.34,2.14,5.81,5.81,0,0,1-1.63,1.28,6.78,6.78,0,0,1-3.74.61c-.21,0-.46,0-.75-.1a3.75,3.75,0,0,1-.86-.22,4.71,4.71,0,0,1-.84-.42,1.9,1.9,0,0,1-.62-.64,2,2,0,0,1-.3-.84,3.84,3.84,0,0,1,0-.83,4.87,4.87,0,0,1,.14-.74c.07-.22.13-.42.19-.59a5.42,5.42,0,0,1,1.28-2,9.7,9.7,0,0,1,1.57-1.24,7,7,0,0,1,4.22-.77l.64.08a3.85,3.85,0,0,1,.78.19,4,4,0,0,1,.77.39A1.77,1.77,0,0,1,883.27,411.18Zm-.73.54a1.33,1.33,0,0,0-.63-.51,2.08,2.08,0,0,0-.8-.09,3.24,3.24,0,0,0-.88.19,8,8,0,0,0-.83.35,10.73,10.73,0,0,0-1,.51l-.91.51c-.62.34-1.25.73-1.89,1.16a5.3,5.3,0,0,0-.72.51,2.89,2.89,0,0,0-.62.64,1.82,1.82,0,0,0-.34.75,1.15,1.15,0,0,0,.14.78,1.08,1.08,0,0,0,.61.51,1.87,1.87,0,0,0,.82.08,3.74,3.74,0,0,0,.88-.21,6.89,6.89,0,0,0,.83-.35c.36-.17.7-.34,1-.51l.94-.51.91-.51c.29-.17.6-.38.94-.61s.44-.32.69-.51a3.4,3.4,0,0,0,.62-.64,1.94,1.94,0,0,0,.34-.75A1.17,1.17,0,0,0,882.54,411.72Z"/><line class="ac" x1="873.41" y1="431.35" x2="873.41" y2="452.66"/><path class="m" d="M873.3,430.05a4.84,4.84,0,0,1,1-1.6,7.35,7.35,0,0,1,1.52-1.3,7.26,7.26,0,0,1,1.85-.86,7,7,0,0,1,2-.31,4.5,4.5,0,0,1,1.79.34,3.11,3.11,0,0,1,1.21.89,2.7,2.7,0,0,1,.56,1.32,3.09,3.09,0,0,1-.21,1.61,4.88,4.88,0,0,1-1,1.61,7.29,7.29,0,0,1-3.4,2.18,7,7,0,0,1-2,.3,4.37,4.37,0,0,1-1.77-.33,3.26,3.26,0,0,1-1.22-.91,2.59,2.59,0,0,1-.56-1.33A3.34,3.34,0,0,1,873.3,430.05Z"/><path class="d" d="M28.89,197.2a3.72,3.72,0,0,0,.53-1.88c0-1.06-.57-1.69-1.38-1.69s-1.19.44-1.61,1.53c-.47,1.32-1.15,2.13-2.29,2.13A2.32,2.32,0,0,1,22,194.68a3.73,3.73,0,0,1,.39-1.79l.85.29a3.24,3.24,0,0,0-.38,1.53c0,1.11.66,1.53,1.21,1.53.76,0,1.13-.5,1.56-1.61.53-1.37,1.19-2.06,2.37-2.06s2.33.92,2.33,2.83a4.13,4.13,0,0,1-.52,2.06Z"/><path class="d" d="M22.17,191.14a12.81,12.81,0,0,1-.15-2,3.31,3.31,0,0,1,.67-2.26,2.15,2.15,0,0,1,1.69-.71,2.38,2.38,0,0,1,1.73.62,3.38,3.38,0,0,1,.89,2.47,3.52,3.52,0,0,1-.08.84h3.24v1Zm3.9-1a3.43,3.43,0,0,0,.09-.86c0-1.26-.62-2-1.73-2s-1.59.76-1.59,1.91a4.11,4.11,0,0,0,.09,1Z"/><path class="d" d="M26.37,180.57v3.14h2.92v-3.5h.87v4.54H22.08v-4.36H23v3.32h2.56v-3.14Z"/><path class="d" d="M29.9,173.2a5.2,5.2,0,0,1,.38,2.13,3.78,3.78,0,0,1-4.09,4A4,4,0,0,1,22,175.11a4.22,4.22,0,0,1,.36-1.92l.85.25a3.69,3.69,0,0,0-.34,1.63,3,3,0,0,0,3.34,3.15,2.94,2.94,0,0,0,3.25-3.1,4.21,4.21,0,0,0-.34-1.7Z"/><path class="d" d="M23,170.35v2.46h-.88v-6H23v2.47h7.2v1Z"/><path class="d" d="M22.19,165.92a10.58,10.58,0,0,1-.17-2,3.31,3.31,0,0,1,.66-2.34,2,2,0,0,1,1.53-.63,2.13,2.13,0,0,1,2.07,1.52h0a2,2,0,0,1,1.63-1.19,12.33,12.33,0,0,0,2.22-.62v1.08a10.79,10.79,0,0,1-1.93.54c-1.12.24-1.54.67-1.57,1.62v1h3.5v1Zm3.68-1v-1.07c0-1.11-.61-1.82-1.54-1.82s-1.5.76-1.51,1.86a4.15,4.15,0,0,0,.1,1Z"/><path class="d" d="M27.62,158.16l2.54.84v1.08l-8.08-2.75v-1.26l8.08-2.75v1.11l-2.54.87Zm-.82-2.65-2.32.79c-.53.18-1,.3-1.48.42v0c.48.12,1,.25,1.46.4l2.34.8Z"/><path class="d" d="M22.08,152.12v-1h7.21v-3.45h.87v4.49Z"/><path class="d" d="M29.9,138.27a5.2,5.2,0,0,1,.38,2.13,3.78,3.78,0,0,1-4.09,4A4,4,0,0,1,22,140.17a4.2,4.2,0,0,1,.36-1.91l.85.25a3.66,3.66,0,0,0-.34,1.63,3,3,0,0,0,3.34,3.15,2.94,2.94,0,0,0,3.25-3.1,4.26,4.26,0,0,0-.34-1.71Z"/><path class="d" d="M26.37,132.77v3.14h2.92v-3.5h.87V137H22.08v-4.37H23v3.32h2.56v-3.14Z"/><path class="d" d="M30.16,131.05H22.08v-1.14l4.09-2.59a23.75,23.75,0,0,1,2.62-1.45v0c-1.08.09-2.06.12-3.32.12H22.08v-1h8.08V126l-4.1,2.57a26.34,26.34,0,0,1-2.7,1.51v0c1-.06,2-.08,3.34-.08h3.45Z"/><path class="d" d="M23,121.62v2.46h-.88v-6H23v2.47h7.2v1.05Z"/><path class="d" d="M22.19,117.19a10.58,10.58,0,0,1-.17-2,3.29,3.29,0,0,1,.66-2.34,2,2,0,0,1,1.53-.63,2.13,2.13,0,0,1,2.07,1.52h0a2,2,0,0,1,1.63-1.19,12.33,12.33,0,0,0,2.22-.62V113a10.79,10.79,0,0,1-1.93.54c-1.12.24-1.54.67-1.57,1.62v1h3.5v1Zm3.68-1v-1.07c0-1.11-.61-1.82-1.54-1.82s-1.5.75-1.51,1.86a4.15,4.15,0,0,0,.1,1Z"/><path class="d" d="M26,103.83c2.78,0,4.25,1.69,4.25,3.75s-1.65,3.64-4.1,3.64S22,109.62,22,107.46,23.64,103.83,26,103.83Zm.13,6.27c1.72,0,3.27-.93,3.27-2.58s-1.52-2.59-3.36-2.59c-1.6,0-3.28.84-3.28,2.58S24.39,110.1,26.17,110.1Z"/><path class="d" d="M22.08,101.43h8.08v1H22.08Z"/><path class="d" d="M22.19,99.6A14.33,14.33,0,0,1,22,97.38a4.67,4.67,0,0,1,1-3.27A3.74,3.74,0,0,1,25.93,93a4.28,4.28,0,0,1,3.14,1.16,5,5,0,0,1,1.16,3.58,17,17,0,0,1-.09,1.89Zm7.14-1a6.45,6.45,0,0,0,.06-1.06A3.1,3.1,0,0,0,26,94.06c-1.9,0-3.12,1.07-3.12,3.27A6,6,0,0,0,23,98.56Z"/><path class="d" d="M22.3,393.06a12.81,12.81,0,0,1-.15-2,3.31,3.31,0,0,1,.67-2.26,2.15,2.15,0,0,1,1.69-.71,2.42,2.42,0,0,1,1.73.62,3.35,3.35,0,0,1,.89,2.47,3.52,3.52,0,0,1-.08.84h3.24v1.05ZM26.2,392a3.38,3.38,0,0,0,.09-.86c0-1.26-.62-2-1.73-2S23,389.88,23,391a4.26,4.26,0,0,0,.08,1Z"/><path class="d" d="M22.21,385.63h8.08v1H22.21Z"/><path class="d" d="M23.1,382.27v2.46h-.89v-6h.89v2.47h7.19v1.06Z"/><path class="d" d="M30,372.19a5.25,5.25,0,0,1,.38,2.14,3.77,3.77,0,0,1-4.09,4,4,4,0,0,1-4.24-4.22,4.26,4.26,0,0,1,.36-1.92l.85.25a3.84,3.84,0,0,0-.34,1.63,3,3,0,0,0,3.34,3.16,2.94,2.94,0,0,0,3.25-3.11,4.24,4.24,0,0,0-.34-1.7Z"/><path class="d" d="M22.21,369.84h3.38v-3.91H22.21v-1.06h8.08v1.06H26.5v3.91h3.79v1H22.21Z"/><path d="M107.87,138.09v-5h-.81v-.81h.81V132a2.62,2.62,0,0,1,.82-2,2.71,2.71,0,0,1,1.86-.59,3.73,3.73,0,0,1,1.74.38v8.27h-1.05v-7.68a1.94,1.94,0,0,0-.86-.15c-1.1,0-1.46.8-1.46,1.74v.28h1.35v.81h-1.35v5Z"/><path d="M113.67,137.46a.71.71,0,0,1,.72-.75.76.76,0,0,1,0,1.51A.71.71,0,0,1,113.67,137.46Z"/><path d="M470.61,75.34a1.87,1.87,0,0,0,2,2,4,4,0,0,0,1.61-.3l.18.75a4.67,4.67,0,0,1-1.93.36,2.7,2.7,0,0,1-2.86-2.93c0-1.75,1-3.13,2.73-3.13a2.47,2.47,0,0,1,2.4,2.74,4.35,4.35,0,0,1,0,.49Zm3.1-.76a1.5,1.5,0,0,0-1.47-1.71,1.75,1.75,0,0,0-1.62,1.71Z"/><path d="M475.64,77.43a.71.71,0,0,1,.72-.76.76.76,0,1,1-.72.76Z"/><path d="M480.92,69.54H482v3.62h0a2,2,0,0,1,.75-.75,2.22,2.22,0,0,1,1.08-.3c.78,0,2,.48,2,2.49v3.45H484.8V74.72c0-.94-.34-1.73-1.34-1.73a1.51,1.51,0,0,0-1.41,1.06,1.22,1.22,0,0,0-.08.5v3.5h-1.05Z"/><path d="M487.58,73.82c0-.6,0-1.09-.05-1.57h.94l.06,1h0a2.13,2.13,0,0,1,1.92-1.1c.8,0,2,.48,2,2.47v3.47h-1.06V74.7c0-.93-.34-1.71-1.34-1.71a1.5,1.5,0,0,0-1.41,1.08,1.44,1.44,0,0,0-.08.49v3.49h-1.05Z"/><path d="M494,77.43a.71.71,0,0,1,.72-.76.76.76,0,1,1-.72.76Z"/><path d="M108,212.34v-5h-.81v-.8H108v-.26a2.62,2.62,0,0,1,.82-2,2.76,2.76,0,0,1,1.86-.59,3.69,3.69,0,0,1,1.73.39v8.26h-1v-7.68a1.94,1.94,0,0,0-.86-.15c-1.11,0-1.47.8-1.47,1.74v.29h1.36v.8h-1.36v5Z"/><path d="M113.84,211.72a.71.71,0,0,1,.72-.76.76.76,0,0,1,0,1.51A.7.7,0,0,1,113.84,211.72Z"/><path d="M484.41,44.25v1.67h1.51v.8h-1.51v3.13c0,.72.21,1.13.79,1.13a2.29,2.29,0,0,0,.62-.07l0,.79a2.39,2.39,0,0,1-.93.15,1.46,1.46,0,0,1-1.14-.45,2.15,2.15,0,0,1-.41-1.51V46.72h-.9v-.8h.9V44.53Z"/><path d="M487.11,47.82c0-.75,0-1.35,0-1.9H488l.05,1h0a2.3,2.3,0,0,1,2.07-1.13c1.4,0,2.46,1.19,2.46,3,0,2.09-1.28,3.12-2.64,3.12a2.05,2.05,0,0,1-1.79-.91h0V54.1h-1.05Zm1.05,1.54a2.74,2.74,0,0,0,0,.43A1.63,1.63,0,0,0,489.79,51c1.11,0,1.76-.91,1.76-2.24,0-1.17-.61-2.16-1.73-2.16a1.67,1.67,0,0,0-1.59,1.31,1.49,1.49,0,0,0-.07.43Z"/><path d="M493.4,51.1a.71.71,0,0,1,.72-.75.7.7,0,0,1,.71.75.72.72,0,1,1-1.43,0Z"/><path d="M104,23.9l1.14,3.26a14.56,14.56,0,0,1,.46,1.48h0c.13-.48.3-1,.49-1.48l1.13-3.26h1.1L106,29.7h-1l-2.21-5.8Z"/><path d="M112.49,29.7,112.4,29h0a2.19,2.19,0,0,1-1.78.86,1.65,1.65,0,0,1-1.77-1.67c0-1.4,1.24-2.17,3.49-2.15v-.12A1.21,1.21,0,0,0,111,24.54a2.9,2.9,0,0,0-1.51.43l-.24-.69a3.6,3.6,0,0,1,1.9-.52c1.78,0,2.21,1.21,2.21,2.38v2.17a7.44,7.44,0,0,0,.1,1.39Zm-.16-3c-1.15,0-2.46.18-2.46,1.3a.94.94,0,0,0,1,1,1.45,1.45,0,0,0,1.4-1,1,1,0,0,0,.06-.34Z"/><path d="M114.8,29.08a.71.71,0,0,1,.72-.76.76.76,0,1,1-.72.76Z"/><path d="M296.4,267.4a3.78,3.78,0,0,1-1.67.34,2.76,2.76,0,0,1-2.89-3,3,3,0,0,1,3.12-3.08,3.52,3.52,0,0,1,1.46.3l-.23.82a2.42,2.42,0,0,0-1.23-.28,2,2,0,0,0-2,2.2,2,2,0,0,0,2,2.17,3,3,0,0,0,1.29-.29Z"/><path d="M297.59,267.62c0-.4.05-1,.05-1.5v-7h1v3.65h0a2.15,2.15,0,0,1,2-1.07c1.43,0,2.45,1.2,2.44,3,0,2.08-1.31,3.11-2.6,3.11a2.07,2.07,0,0,1-1.94-1.09h0l-.05,1Zm1.09-2.33a2.32,2.32,0,0,0,.05.38,1.62,1.62,0,0,0,1.58,1.24c1.11,0,1.77-.9,1.77-2.23,0-1.16-.6-2.16-1.73-2.16a1.69,1.69,0,0,0-1.61,1.3,2.22,2.22,0,0,0-.06.43Z"/><path d="M303.93,267a.71.71,0,0,1,.72-.75.69.69,0,0,1,.7.75.7.7,0,0,1-.72.76A.71.71,0,0,1,303.93,267Z"/><path d="M107.84,254.12a4,4,0,0,1-1.67.33,2.76,2.76,0,0,1-2.89-3,3,3,0,0,1,3.12-3.08,3.45,3.45,0,0,1,1.47.3l-.24.81a2.54,2.54,0,0,0-1.23-.27,2.19,2.19,0,0,0,0,4.36,2.86,2.86,0,0,0,1.29-.29Z"/><path d="M109.08,245.82h1.06v8.51h-1.06Z"/><path d="M111.54,253.71a.71.71,0,0,1,.72-.76.76.76,0,1,1-.72.76Z"/><path d="M475.91,238.58c0-.4,0-1,0-1.5v-7h1v3.65h0a2.15,2.15,0,0,1,2-1.07c1.43,0,2.45,1.2,2.44,3,0,2.07-1.31,3.1-2.6,3.1a2.06,2.06,0,0,1-1.94-1.09h0l-.05,1Zm1.09-2.33a2.44,2.44,0,0,0,.05.39,1.63,1.63,0,0,0,1.58,1.23c1.11,0,1.77-.9,1.77-2.23,0-1.16-.6-2.16-1.73-2.16a1.69,1.69,0,0,0-1.61,1.3,2.34,2.34,0,0,0-.06.43Z"/><path d="M482.64,237.5a2.82,2.82,0,0,0,1.39.42c.77,0,1.13-.38,1.13-.86s-.3-.78-1.08-1.07c-1-.37-1.53-1-1.53-1.64a1.79,1.79,0,0,1,2-1.71A2.94,2.94,0,0,1,486,233l-.27.77a2.24,2.24,0,0,0-1.18-.34c-.63,0-1,.36-1,.8s.35.69,1.11,1c1,.38,1.52.89,1.52,1.75,0,1-.79,1.74-2.17,1.74a3.3,3.3,0,0,1-1.63-.4Z"/><path d="M487.54,234.35c0-.6,0-1.1-.05-1.58h.94l.06,1h0a2.14,2.14,0,0,1,1.92-1.09c.8,0,2.05.48,2.05,2.47v3.47h-1.06v-3.35c0-.93-.34-1.71-1.34-1.71a1.5,1.5,0,0,0-1.41,1.08,1.44,1.44,0,0,0-.08.49v3.49h-1Z"/><path d="M494,238a.71.71,0,0,1,.72-.76.76.76,0,1,1-.72.76Z"/><path d="M97.67,190.36c0-.4,0-1,0-1.5v-7h1v3.65h0a2.15,2.15,0,0,1,2-1.07c1.44,0,2.45,1.2,2.44,3,0,2.08-1.3,3.11-2.6,3.11a2.07,2.07,0,0,1-1.94-1.09h0l0,1ZM98.76,188a2.32,2.32,0,0,0,0,.38,1.64,1.64,0,0,0,1.58,1.24c1.11,0,1.77-.9,1.77-2.23,0-1.17-.6-2.16-1.73-2.16a1.69,1.69,0,0,0-1.61,1.29,2.46,2.46,0,0,0-.06.44Z"/><path d="M104.4,189.28a2.86,2.86,0,0,0,1.4.42c.76,0,1.12-.39,1.12-.87s-.3-.78-1.08-1.06c-1-.38-1.53-1-1.53-1.65a1.79,1.79,0,0,1,2-1.7,2.94,2.94,0,0,1,1.43.36l-.27.77a2.15,2.15,0,0,0-1.18-.34c-.63,0-1,.36-1,.79s.34.7,1.1,1c1,.38,1.52.88,1.52,1.75s-.79,1.74-2.17,1.74a3.33,3.33,0,0,1-1.63-.4Z"/><path d="M109.3,186.12c0-.6,0-1.09,0-1.57h.94l.06,1h0a2.14,2.14,0,0,1,1.92-1.09c.8,0,2,.48,2,2.47v3.47h-1V187c0-.94-.35-1.71-1.35-1.71a1.5,1.5,0,0,0-1.41,1.07,1.55,1.55,0,0,0-.07.5v3.49H109.3Z"/><path d="M115.71,189.73a.71.71,0,0,1,.72-.75.69.69,0,0,1,.7.75.7.7,0,0,1-.71.76A.71.71,0,0,1,115.71,189.73Z"/><path d="M478.79,239.5h1v3.62h0a1.93,1.93,0,0,1,.75-.75,2.19,2.19,0,0,1,1.08-.3c.78,0,2,.48,2,2.49V248h-1.06v-3.33c0-.94-.35-1.73-1.34-1.73a1.54,1.54,0,0,0-1.42,1.05,1.31,1.31,0,0,0-.07.51V248h-1Z"/><path d="M485.45,243.78c0-.6,0-1.09-.05-1.57h.93l.06,1h0a2.13,2.13,0,0,1,1.92-1.1c.8,0,2.05.48,2.05,2.47V248h-1.06v-3.35c0-.93-.35-1.71-1.34-1.71a1.5,1.5,0,0,0-1.42,1.08,1.75,1.75,0,0,0-.07.49V248h-1.05Z"/><path d="M491.85,247.39a.71.71,0,0,1,.72-.76.76.76,0,1,1-.72.76Z"/><path d="M480.07,23.9l1.14,3.26a14.72,14.72,0,0,1,.47,1.48h0c.14-.48.3-1,.5-1.48l1.12-3.26h1.11l-2.28,5.8h-1l-2.21-5.8Z"/><path d="M488.6,29.7l-.08-.73h0a2.17,2.17,0,0,1-1.77.86,1.66,1.66,0,0,1-1.78-1.67c0-1.4,1.25-2.17,3.49-2.15v-.12a1.2,1.2,0,0,0-1.32-1.35,2.93,2.93,0,0,0-1.51.43l-.24-.69a3.64,3.64,0,0,1,1.91-.52c1.77,0,2.2,1.21,2.2,2.38v2.17a8.4,8.4,0,0,0,.1,1.39Zm-.16-3c-1.15,0-2.45.18-2.45,1.3a.93.93,0,0,0,1,1,1.43,1.43,0,0,0,1.4-1,1,1,0,0,0,.06-.34Z"/><path d="M490.92,29.08a.71.71,0,0,1,.72-.76.76.76,0,1,1-.72.76Z"/><path d="M675.53,267.4a3.72,3.72,0,0,1-1.66.34,2.76,2.76,0,0,1-2.9-3,3,3,0,0,1,3.12-3.08,3.61,3.61,0,0,1,1.47.3l-.24.82a2.42,2.42,0,0,0-1.23-.28,2.19,2.19,0,0,0,0,4.37,3,3,0,0,0,1.29-.29Z"/><path d="M676.72,267.62c0-.4,0-1,0-1.5v-7h1v3.65h0a2.15,2.15,0,0,1,2-1.07c1.44,0,2.46,1.2,2.44,3,0,2.08-1.3,3.11-2.6,3.11a2.07,2.07,0,0,1-1.94-1.09h0l0,1Zm1.09-2.33a2.32,2.32,0,0,0,.05.38,1.63,1.63,0,0,0,1.59,1.24c1.1,0,1.76-.9,1.76-2.23,0-1.16-.6-2.16-1.73-2.16a1.69,1.69,0,0,0-1.61,1.3,2.22,2.22,0,0,0-.06.43Z"/><path d="M683.06,267a.71.71,0,0,1,.72-.75.7.7,0,0,1,.71.75.72.72,0,1,1-1.43,0Z"/><path class="ae" d="M97.92,148.22l-.76,2.27h-1l2.46-7.23h1.12l2.47,7.23h-1l-.77-2.27Zm2.37-.73-.71-2.08c-.16-.48-.27-.91-.38-1.32h0c-.11.43-.22.87-.36,1.31l-.71,2.09Z"/><path class="ae" d="M104.33,150.49,102,143.26h1l1.12,3.56c.32,1,.58,1.86.78,2.71h0c.2-.84.5-1.75.82-2.7l1.23-3.57h1l-2.58,7.23Z"/><path class="ae" d="M114.23,150.17a6.76,6.76,0,0,1-2.22.4,3.4,3.4,0,0,1-3.71-3.65,3.62,3.62,0,0,1,3.91-3.73,4.45,4.45,0,0,1,1.8.33l-.22.76a3.79,3.79,0,0,0-1.6-.31,2.7,2.7,0,0,0-2.91,2.91,2.65,2.65,0,0,0,2.79,2.91,3.07,3.07,0,0,0,1.25-.19v-2.16h-1.47v-.75h2.38Z"/><path class="ae" d="M115.4,149.93a.63.63,0,0,1,.64-.67.68.68,0,0,1,0,1.35A.63.63,0,0,1,115.4,149.93Z"/><path d="M864,136.5v-5h-.81v-.8H864v-.26a2.62,2.62,0,0,1,.82-2,2.76,2.76,0,0,1,1.86-.59,3.76,3.76,0,0,1,1.74.39v8.26h-1.05v-7.68a1.94,1.94,0,0,0-.86-.15c-1.1,0-1.46.8-1.46,1.74v.29h1.35v.8h-1.35v5Z"/><path d="M869.82,135.88a.71.71,0,0,1,.72-.76.76.76,0,1,1-.72.76Z"/><path d="M864.19,210.75v-5h-.81V205h.81v-.25a2.63,2.63,0,0,1,.82-2,2.76,2.76,0,0,1,1.86-.58,3.69,3.69,0,0,1,1.73.38v8.26h-1v-7.67a1.82,1.82,0,0,0-.86-.16c-1.11,0-1.47.8-1.47,1.74V205h1.36v.8h-1.36v5Z"/><path d="M870,210.13a.72.72,0,0,1,.72-.76.76.76,0,1,1-.72.76Z"/><path d="M860.1,22.31l1.14,3.26a13.28,13.28,0,0,1,.47,1.49h0c.13-.48.3-1,.49-1.49l1.13-3.26h1.1l-2.28,5.8h-1l-2.2-5.8Z"/><path d="M868.63,28.11l-.08-.73h0a2.13,2.13,0,0,1-1.77.86A1.65,1.65,0,0,1,865,26.58c0-1.41,1.25-2.17,3.5-2.16V24.3A1.21,1.21,0,0,0,867.14,23a2.82,2.82,0,0,0-1.51.44l-.25-.7a3.63,3.63,0,0,1,1.91-.51c1.78,0,2.21,1.21,2.21,2.37v2.17a8.39,8.39,0,0,0,.09,1.39Zm-.15-3c-1.15,0-2.46.18-2.46,1.31a.93.93,0,0,0,1,1,1.45,1.45,0,0,0,1.4-1,1,1,0,0,0,.06-.33Z"/><path d="M871,27.49a.71.71,0,0,1,.72-.76.76.76,0,1,1-.72.76Z"/><path d="M866.17,254.12a4,4,0,0,1-1.67.33,2.76,2.76,0,0,1-2.89-3,3,3,0,0,1,3.12-3.08,3.37,3.37,0,0,1,1.46.3l-.23.81a2.54,2.54,0,0,0-1.23-.27,2.19,2.19,0,0,0,0,4.36,2.86,2.86,0,0,0,1.29-.29Z"/><path d="M867.41,245.82h1.05v8.51h-1.05Z"/><path d="M869.87,253.71a.71.71,0,0,1,.72-.76.76.76,0,1,1-.72.76Z"/><path d="M853.82,188.77c0-.4,0-1,0-1.5v-7h1v3.65h0a2.15,2.15,0,0,1,2-1.07c1.43,0,2.45,1.2,2.44,3,0,2.08-1.31,3.11-2.6,3.11a2.06,2.06,0,0,1-1.94-1.09h0l0,1Zm1.09-2.33a2.44,2.44,0,0,0,.05.39,1.63,1.63,0,0,0,1.58,1.23c1.11,0,1.77-.9,1.77-2.23,0-1.16-.6-2.16-1.73-2.16A1.69,1.69,0,0,0,855,185a2.34,2.34,0,0,0-.06.43Z"/><path d="M860.55,187.69a2.82,2.82,0,0,0,1.39.42c.77,0,1.13-.39,1.13-.86s-.3-.78-1.08-1.07c-1-.37-1.53-1-1.53-1.65a1.79,1.79,0,0,1,2-1.7,2.94,2.94,0,0,1,1.43.36l-.27.77a2.24,2.24,0,0,0-1.18-.34c-.63,0-1,.36-1,.79s.35.7,1.11,1c1,.38,1.52.89,1.52,1.75,0,1-.79,1.74-2.17,1.74a3.3,3.3,0,0,1-1.63-.4Z"/><path d="M865.45,184.53c0-.6,0-1.09-.05-1.57h.94l.06,1h0a2.14,2.14,0,0,1,1.92-1.09c.8,0,2,.48,2,2.47v3.47h-1.06v-3.35c0-.93-.34-1.71-1.34-1.71a1.5,1.5,0,0,0-1.41,1.08,1.44,1.44,0,0,0-.08.49v3.49h-1Z"/><path d="M871.86,188.14a.71.71,0,0,1,.72-.75.69.69,0,0,1,.7.75.71.71,0,1,1-1.42,0Z"/><path d="M877,42h-2v1h2V42Zm-4,0h-2v1h2V42Zm-4,0h-2v1h2V42Zm-4,0h-2v1h2V42Zm-4,0h-2v1h2V42Zm-4,0h-2v1h2V42Zm-4,0h-2v1h2V42Zm-4,0h-2v1h2V42Zm-4,0h-2v1h2V42Zm-4,0h-2v1h2V42Zm-4,0h-2v1h2V42Zm-4,0h-2v1h2V42Zm-4,0h-2v1h2V42Zm-4,0h-2v1h2V42Zm-4,0h-2v1h2V42Zm-4,0h-2v1h2V42Zm-4,0h-2v1h2V42Zm-4,0h-2v1h2V42Zm-4,0h-2v1h2V42Zm-4,0h-2v1h2V42Zm-4,0h-2v1h2V42Zm-4,0h-2v1h2V42Zm-4,0h-2v1h2V42Zm-4,0h-2v1h2V42Zm-4,0h-2v1h2V42Zm-4,0h-2v1h2V42Zm-4,0h-2v1h2V42Zm-4,0h-2v1h2V42Zm-4,0h-2v1h2V42Zm-4,0h-2v1h2V42Zm-4,0h-2v1h2V42Zm-4,0h-2v1h2V42Zm-4,0h-2v1h2V42Zm-4,0h-2v1h2V42Zm-4,0h-2v1h2V42Zm-4,0h-2v1h2V42Zm-4,0h-2v1h2V42Zm-4,0h-2v1h2V42Zm-4,0h-2v1h2V42Zm-4,0h-2v1h2V42Zm-4,0h-2v1h2V42Zm-4,0h-2v1h2V42Zm-4,0h-2v1h2V42Zm-4,0h-2v1h2V42Zm-4,0h-2v1h2V42Zm-4,0h-2v1h2V42Zm-4,0h-2v1h2V42Zm-4,0h-2v1h2V42Zm-4,0h-2v1h2V42Zm-4,0h-2v1h2V42Zm-4,0h-2v1h2V42Zm-4,0h-2v1h2V42Zm-4,0h-2v1h2V42Zm-4,0h-2v1h2V42Zm-4,0h-2v1h2V42Zm-4,0h-2v1h2V42Zm-4,0h-2v1h2V42Zm-4,0h-2v1h2V42Zm-4,0h-2v1h2V42Zm-4,0h-2v1h2V42Zm-4,0h-2v1h2V42Zm-4,0h-2v1h2V42Zm-4,0h-2v1h2V42Zm-4,0h-2v1h2V42Zm-4,0h-2v1h2V42Zm-4,0h-2v1h2V42Zm-4,0h-2v1h2V42Zm-4,0h-2v1h2V42Zm-4,0h-2v1h2V42Zm-4,0h-2v1h2V42Zm-4,0h-2v1h2V42Zm-4,0h-2v1h2V42Zm-4,0h-2v1h2V42Zm-4,0h-2v1h2V42Zm-4,0h-2v1h2V42Zm-4,0h-2v1h2V42Zm-4,0h-2v1h2V42Zm-4,0h-2v1h2V42Zm-4,0h-2v1h2V42Zm-4,0h-2v1h2V42Zm-4,0h-2v1h2V42Zm-4,0h-2v1h2V42Zm-4,0h-2v1h2V42Zm-4,0h-2v1h2V42Zm-4,0h-2v1h2V42Zm-4,0h-2v1h2V42Zm-4,0h-2v1h2V42Zm-4,0h-2v1h2V42Zm-4,0h-2v1h2V42Zm-4,0h-2v1h2V42Zm-4,0h-2v1h2V42Zm-4,0h-2v1h2V42Zm-4,0h-2v1h2V42Zm-4,0h-2v1h2V42Zm-4,0h-2v1h2V42Zm-1.43,1.58h-1v2h1v-2Zm0,4h-1v2h1v-2Zm0,4h-1v2h1v-2Zm0,4h-1v2h1v-2Zm2.19,1.8h-2v1h2v-1Zm4,0h-2v1h2v-1Zm4,0h-2v1h2v-1Zm4,0h-2v1h2v-1Zm4,0h-2v1h2v-1Zm4,0h-2v1h2v-1Zm4,0h-2v1h2v-1Zm4,0h-2v1h2v-1Zm4,0h-2v1h2v-1Zm4,0h-2v1h2v-1Zm4,0h-2v1h2v-1Zm4,0h-2v1h2v-1Zm4,0h-2v1h2v-1Zm4,0h-2v1h2v-1Zm4,0h-2v1h2v-1Zm4,0h-2v1h2v-1Zm4,0h-2v1h2v-1Zm4,0h-2v1h2v-1Zm4,0h-2v1h2v-1Zm4,0h-2v1h2v-1Zm4,0h-2v1h2v-1Zm4,0h-2v1h2v-1Zm4,0h-2v1h2v-1Zm4,0h-2v1h2v-1Zm4,0h-2v1h2v-1Zm4,0h-2v1h2v-1Zm4,0h-2v1h2v-1Zm4,0h-2v1h2v-1Zm4,0h-2v1h2v-1Zm4,0h-2v1h2v-1Zm4,0h-2v1h2v-1Zm4,0h-2v1h2v-1Zm4,0h-2v1h2v-1Zm4,0h-2v1h2v-1Zm4,0h-2v1h2v-1Zm4,0h-2v1h2v-1Zm4,0h-2v1h2v-1Zm4,0h-2v1h2v-1Zm4,0h-2v1h2v-1Zm4,0h-2v1h2v-1Zm4,0h-2v1h2v-1Zm4,0h-2v1h2v-1Zm4,0h-2v1h2v-1Zm4,0h-2v1h2v-1Zm4,0h-2v1h2v-1Zm4,0h-2v1h2v-1Zm4,0h-2v1h2v-1Zm4,0h-2v1h2v-1Zm4,0h-2v1h2v-1Zm4,0h-2v1h2v-1Zm4,0h-2v1h2v-1Zm4,0h-2v1h2v-1Zm4,0h-2v1h2v-1Zm4,0h-2v1h2v-1Zm4,0h-2v1h2v-1Zm4,0h-2v1h2v-1Zm4,0h-2v1h2v-1Zm4,0h-2v1h2v-1Zm4,0h-2v1h2v-1Zm4,0h-2v1h2v-1Zm4,0h-2v1h2v-1Zm4,0h-2v1h2v-1Zm4,0h-2v1h2v-1Zm4,0h-2v1h2v-1Zm4,0h-2v1h2v-1Zm4,0h-2v1h2v-1Zm4,0h-2v1h2v-1Zm4,0h-2v1h2v-1Zm4,0h-2v1h2v-1Zm4,0h-2v1h2v-1Zm4,0h-2v1h2v-1Zm4,0h-2v1h2v-1Zm4,0h-2v1h2v-1Zm4,0h-2v1h2v-1Zm4,0h-2v1h2v-1Zm4,0h-2v1h2v-1Zm4,0h-2v1h2v-1Zm4,0h-2v1h2v-1Zm4,0h-2v1h2v-1Zm4,0h-2v1h2v-1Zm4,0h-2v1h2v-1Zm4,0h-2v1h2v-1Zm4,0h-2v1h2v-1Zm4,0h-2v1h2v-1Zm4,0h-2v1h2v-1Zm4,0h-2v1h2v-1Zm4,0h-2v1h2v-1Zm4,0h-2v1h2v-1Zm4,0h-2v1h2v-1Zm4,0h-2v1h2v-1Zm4,0h-2v1h2v-1Zm4,0h-2v1h2v-1Zm4,0h-2v1h2v-1Zm4,0h-2v1h2v-1Zm4,0h-2v1h2v-1Zm3.24,0h-1.24v1H881v-1Zm0-3.76h-1v2h1v-2Zm0-4h-1v2h1v-2Zm0-4h-1v2h1v-2ZM881,42h-2v1h1v.62h1V42Z"/></svg>